<mxfile host="app.diagrams.net" modified="2023-05-05T06:51:29.214Z" agent="Mozilla/5.0 (Windows NT 10.0; Win64; x64; rv:109.0) Gecko/20100101 Firefox/112.0" version="21.2.9" etag="ACVi8dM5uiHJYMi1O4U9" type="github">
  <diagram name="第 1 页" id="AE8UB-ZpOJdKNOGypsQ4">
    <mxGraphModel>
      <root>
        <mxCell id="0" />
        <mxCell id="1" parent="0" />
      </root>
    </mxGraphModel>
  </diagram>
</mxfile>
